<svg version="1.0" xmlns="http://www.w3.org/2000/svg" width="346.667" height="346.667" viewBox="0 0 260 260"><path d="M32 96.9c0 .5 1 1.1 2.3 1.3 2.2.3 2.2.5 2.2 16.8s0 16.5-2.2 16.8c-1.3.2-2.3.8-2.3 1.3s4.3.9 9.6.9c6.1 0 9.3-.4 8.9-1-.3-.6-1.5-1-2.6-1-1.8 0-1.9-.8-1.9-17s.1-17 1.9-17c1.1 0 2.3-.5 2.6-1 .4-.6-2.8-1-8.9-1-5.3 0-9.6.4-9.6.9zm7.7 26.8c-.1 4.9-.3.9-.3-8.7s.2-13.6.3-8.8c.2 4.9.2 12.7 0 17.5zm4 0c-.1 4.9-.3.9-.3-8.7s.2-13.6.3-8.8c.2 4.9.2 12.7 0 17.5zM53 96.8c0 .4 1 1.2 2.3 1.7 2.1 1 2.2 1.5 2.5 16.8l.3 15.7-2.6 1c-3.9 1.5-3 2 3.5 2 3.3 0 6-.4 6-1s-.9-1-2-1c-2.7 0-3.1-2.5-2.8-16.4l.3-11.9 11.2 15c6.2 8.4 11.7 15.4 12.3 15.8.7.4 1-5 1-16.4 0-17.7.3-20.1 2.6-20.1.8 0 1.4-.5 1.4-1 0-.6-2.5-1-5.5-1-5.4 0-7.7 1.5-3.2 2.2 2.1.3 2.2.8 2.5 10.8l.3 10.5-8.7-11.8L65.8 96h-6.4c-3.5 0-6.4.3-6.4.8zm17 14.9c12.4 16.7 12 16.2 12 13.6 0-1.1-3.7-7.2-8.3-13.4C64.6 99.5 63.6 98 64.4 98c.2 0 4.6 5.6 9.6 12.5 8 11 9.1 12.9 8.8 16-.3 3.6-.4 3.5-11.3-11.1C60.2 100.3 58.6 98 59.3 98c.3 0 5.1 6.2 10.7 13.7zm35.7-13.3c1.1 1.3 4.5 9.6 7.7 18.5s6.2 16.1 6.6 16.1c.4 0 2.9-4.8 5.5-10.8 2.6-5.9 5.1-11.1 5.5-11.5.4-.5 2.7 4.4 5.1 10.7 2.4 6.4 4.8 11.5 5.3 11.3.5-.2 3.6-7.7 6.8-16.8 3.3-9 6.6-16.9 7.4-17.5 2.4-1.9 1.6-2.4-4.1-2.4-5.3 0-7.2 1.1-4 2.4.9.3 1.5 1.8 1.5 3.8 0 3.7-3.9 17.8-5 17.8-.3 0-2.1-4.6-3.9-10.2l-3.2-10.2 2.3-1.8c2.3-1.7 2.1-1.8-5.9-1.8-7.5 0-10.5 1-7 2.3.7.3 1.9 2.2 2.6 4.3 1.1 3.6 1 4.4-1.7 10.7-1.6 3.8-3.3 6.9-3.7 7-.5.1-2.4-4.5-4.3-10.3-3-9.3-3.2-10.5-1.8-11.6 2.8-2 1.8-2.4-6-2.4h-7.5l1.8 2.4zm8.4 11.6c2.3 6.3 4.6 12.6 5.1 13.9.5 1.3 1.1 2.1 1.4 1.9.3-.3-1.4-6.1-3.6-12.8-2.3-6.7-3.9-13-3.7-13.9.2-1 .7-.5 1.1 1.4.4 1.6 2.3 7.8 4.3 13.7 2.1 6.7 3.2 11.6 2.8 12.9-.4 1.1-1.1 1.7-1.5 1.3-.8-.9-11-28.9-11-30.1 0-1.7 1.3 1.3 5.1 11.7zm21.2 1c2.4 6.3 4.7 12.4 5.1 13.4.3 1 .9 1.6 1.2 1.3.3-.3-1.3-5.9-3.5-12.4-2.3-6.6-4.1-12.8-4.1-13.9 0-1 2.1 4.1 4.5 11.4 3.1 9.1 4.3 14.1 3.9 15.9-.6 2.1-.8 2.3-1.6.9-1.7-3-11.8-30-10.9-29 .5.5 2.9 6.1 5.4 12.4zm17.1-11.5c-.4.8-.8 1.5-1 1.5-.2 0-.4-.7-.4-1.5s.4-1.5 1-1.5c.5 0 .7.7.4 1.5zM158 97c0 .5.9 1 2 1 1.9 0 2 .7 2 17s-.1 17-2 17c-1.1 0-2 .4-2 1 0 1.2 30.6 1.4 31.3.2.9-1.6 1.8-10.2 1-10.2-.4 0-1.5 1.3-2.4 2.8-2.1 3.6-7.9 6.4-12.7 6l-3.7-.3-.3-8.3c-.3-7.4-.1-8.2 1.5-8.2 2.7 0 6.3 2.8 6.3 5 0 1 .5 2.2 1 2.5.6.4 1-2.7 1-8.4 0-5.4-.4-9.1-1-9.1-.5 0-1 .9-1 2s-.9 2.9-2 4-2.9 2-4 2c-1.8 0-2-.7-2-7.5V98h3.9c5.6 0 8.9 1.5 10.9 5 2.4 4.2 3.2 3.7 3.2-2v-5h-15.5c-9.7 0-15.5.4-15.5 1zm6.7 26.7c-.1 4.9-.3.9-.3-8.7s.2-13.6.3-8.8c.2 4.9.2 12.7 0 17.5zm4 0c-.1 4.9-.3.9-.3-8.7s.2-13.6.3-8.8c.2 4.9.2 12.7 0 17.5zM187 99c0 .5-.2 1-.4 1-.3 0-.8-.5-1.1-1-.3-.6-.1-1 .4-1 .6 0 1.1.4 1.1 1zm-8 15c0 .5-.2 1-.4 1-.3 0-.8-.5-1.1-1-.3-.6-.1-1 .4-1 .6 0 1.1.4 1.1 1zm9 17c0 .5-.7 1-1.6 1-.8 0-1.2-.5-.9-1 .3-.6 1-1 1.6-1 .5 0 .9.4.9 1zm6-34.2c0 .6 1 1.2 2.3 1.4 2.2.3 2.2.5 2.2 16.8s0 16.5-2.2 16.8c-1.3.2-2.3.8-2.3 1.3s4.8.9 10.8.9c15.5-.1 21.2-3 21.2-11 0-2.3-1-4.2-3.3-6.5l-3.3-3.3 2.3-2.6c3-3.5 2.9-7.8-.1-11.3-2.4-2.8-2.6-2.8-15-3.1-8.1-.2-12.6 0-12.6.6zm8 18.2c0 8.7-.3 16.1-.7 16.3-.5.3-.8-7.1-.8-16.3 0-9.2.3-16.6.8-16.3.4.2.7 7.6.7 16.3zm3.5 0c0 9.3-.3 17-.7 17-.5 0-.8-7.7-.8-17 0-9.4.3-17 .8-17 .4 0 .7 7.6.7 17zm7.7-15.3c2.7 2.4 2.5 9.7-.4 11.7-4.7 3.3-5.8 2.3-5.8-5.2 0-3.8.3-7.2.7-7.5 1.1-1.2 3.6-.8 5.5 1zm6.2.4c3.2 2.5 3.4 6.4.4 9.6-3.1 3.3-3.6 2.9-3-2.6.2-2.6-.1-5.8-.7-7-1.5-2.7-.1-2.7 3.3 0zm-4.3 17c1.8 1.8 2.1 3 1.6 7.2-.5 5.6-2.6 8-6.7 7.5-2.4-.3-2.5-.6-2.8-8.6l-.3-8.2h3.1c1.7 0 3.9.9 5.1 2.1zm8.3 2.4c1.2 3.3.5 4.9-.8 1.9-2.2-5.1-3.1-4.6-3.1 1.7 0 3.2.3 5.9.6 5.9.4 0 1.4-1 2.2-2.3.9-1.2 1.6-1.7 1.6-1 .1 1.2-4.5 5.3-6 5.3-.4 0-.3-1.4.3-3.1 1-3 .7-7.5-.8-11.3-.7-1.7-.5-1.7 2.3-.2 1.7.8 3.3 2.3 3.7 3.1z"/><path d="M217.9 105.2c.3 4.7.4 5 1.7 3.3 1.7-2.2 1.8-4 .4-6.6-1.8-3.3-2.5-2.1-2.1 3.3z"/></svg>