<?xml version="1.0" standalone="no"?>
<!DOCTYPE svg PUBLIC "-//W3C//DTD SVG 20010904//EN"
 "http://www.w3.org/TR/2001/REC-SVG-20010904/DTD/svg10.dtd">
<svg version="1.0" xmlns="http://www.w3.org/2000/svg"
 width="260.000000pt" height="260.000000pt" viewBox="0 0 260.000000 260.000000"
 preserveAspectRatio="xMidYMid meet">
<metadata>
Created by potrace 1.11, written by Peter Selinger 2001-2013
</metadata>
<g transform="translate(0.000000,260.000000) scale(0.100000,-0.100000)"
fill="#000000" stroke="none">
<path d="M320 1631 c0 -5 10 -11 23 -13 22 -3 22 -5 22 -168 0 -163 0 -165
-22 -168 -13 -2 -23 -8 -23 -13 0 -5 43 -9 96 -9 61 0 93 4 89 10 -3 6 -15 10
-26 10 -18 0 -19 8 -19 170 0 162 1 170 19 170 11 0 23 5 26 10 4 6 -28 10
-89 10 -53 0 -96 -4 -96 -9z m77 -268 c-1 -49 -3 -9 -3 87 0 96 2 136 3 88 2
-49 2 -127 0 -175z m40 0 c-1 -49 -3 -9 -3 87 0 96 2 136 3 88 2 -49 2 -127 0
-175z"/>
<path d="M530 1632 c0 -4 10 -12 23 -17 21 -10 22 -15 25 -168 l3 -157 -26
-10 c-39 -15 -30 -20 35 -20 33 0 60 4 60 10 0 6 -9 10 -20 10 -27 0 -31 25
-28 164 l3 119 112 -150 c62 -84 117 -154 123 -158 7 -4 10 50 10 164 0 177 3
201 26 201 8 0 14 5 14 10 0 6 -25 10 -55 10 -54 0 -77 -15 -32 -22 21 -3 22
-8 25 -108 l3 -105 -87 118 -86 117 -64 0 c-35 0 -64 -3 -64 -8z m170 -149
c124 -167 120 -162 120 -136 0 11 -37 72 -83 134 -91 124 -101 139 -93 139 2
0 46 -56 96 -125 80 -110 91 -129 88 -160 -3 -36 -4 -35 -113 111 -113 151
-129 174 -122 174 3 0 51 -62 107 -137z"/>
<path d="M1057 1616 c11 -13 45 -96 77 -185 32 -89 62 -161 66 -161 4 0 29 48
55 108 26 59 51 111 55 115 4 5 27 -44 51 -107 24 -64 48 -115 53 -113 5 2 36
77 68 168 33 90 66 169 74 175 24 19 16 24 -41 24 -53 0 -72 -11 -40 -24 9 -3
15 -18 15 -38 0 -37 -39 -178 -50 -178 -3 0 -21 46 -39 102 l-32 102 23 18
c23 17 21 18 -59 18 -75 0 -105 -10 -70 -23 7 -3 19 -22 26 -43 11 -36 10 -44
-17 -107 -16 -38 -33 -69 -37 -70 -5 -1 -24 45 -43 103 -30 93 -32 105 -18
116 28 20 18 24 -60 24 l-75 0 18 -24z m84 -116 c23 -63 46 -126 51 -139 5
-13 11 -21 14 -19 3 3 -14 61 -36 128 -23 67 -39 130 -37 139 2 10 7 5 11 -14
4 -16 23 -78 43 -137 21 -67 32 -116 28 -129 -4 -11 -11 -17 -15 -13 -8 9
-110 289 -110 301 0 17 13 -13 51 -117z m212 -10 c24 -63 47 -124 51 -134 3
-10 9 -16 12 -13 3 3 -13 59 -35 124 -23 66 -41 128 -41 139 0 10 21 -41 45
-114 31 -91 43 -141 39 -159 -6 -21 -8 -23 -16 -9 -17 30 -118 300 -109 290 5
-5 29 -61 54 -124z m171 115 c-4 -8 -8 -15 -10 -15 -2 0 -4 7 -4 15 0 8 4 15
10 15 5 0 7 -7 4 -15z"/>
<path d="M1580 1630 c0 -5 9 -10 20 -10 19 0 20 -7 20 -170 0 -163 -1 -170
-20 -170 -11 0 -20 -4 -20 -10 0 -12 306 -14 313 -2 9 16 18 102 10 102 -4 0
-15 -13 -24 -28 -21 -36 -79 -64 -127 -60 l-37 3 -3 83 c-3 74 -1 82 15 82 27
0 63 -28 63 -50 0 -10 5 -22 10 -25 6 -4 10 27 10 84 0 54 -4 91 -10 91 -5 0
-10 -9 -10 -20 0 -11 -9 -29 -20 -40 -11 -11 -29 -20 -40 -20 -18 0 -20 7 -20
75 l0 75 39 0 c56 0 89 -15 109 -50 24 -42 32 -37 32 20 l0 50 -155 0 c-97 0
-155 -4 -155 -10z m67 -267 c-1 -49 -3 -9 -3 87 0 96 2 136 3 88 2 -49 2 -127
0 -175z m40 0 c-1 -49 -3 -9 -3 87 0 96 2 136 3 88 2 -49 2 -127 0 -175z m183
247 c0 -5 -2 -10 -4 -10 -3 0 -8 5 -11 10 -3 6 -1 10 4 10 6 0 11 -4 11 -10z
m-80 -150 c0 -5 -2 -10 -4 -10 -3 0 -8 5 -11 10 -3 6 -1 10 4 10 6 0 11 -4 11
-10z m90 -170 c0 -5 -7 -10 -16 -10 -8 0 -12 5 -9 10 3 6 10 10 16 10 5 0 9
-4 9 -10z"/>
<path d="M1940 1632 c0 -6 10 -12 23 -14 22 -3 22 -5 22 -168 0 -163 0 -165
-22 -168 -13 -2 -23 -8 -23 -13 0 -5 48 -9 108 -9 155 1 212 30 212 110 0 23
-10 42 -33 65 l-33 33 23 26 c30 35 29 78 -1 113 -24 28 -26 28 -150 31 -81 2
-126 0 -126 -6z m80 -182 c0 -87 -3 -161 -7 -163 -5 -3 -8 71 -8 163 0 92 3
166 8 163 4 -2 7 -76 7 -163z m35 0 c0 -93 -3 -170 -7 -170 -5 0 -8 77 -8 170
0 94 3 170 8 170 4 0 7 -76 7 -170z m77 153 c27 -24 25 -97 -4 -117 -47 -33
-58 -23 -58 52 0 38 3 72 7 75 11 12 36 8 55 -10z m62 -4 c32 -25 34 -64 4
-96 -31 -33 -36 -29 -30 26 2 26 -1 58 -7 70 -15 27 -1 27 33 0z m-43 -170
c18 -18 21 -30 16 -72 -5 -56 -26 -80 -67 -75 -24 3 -25 6 -28 86 l-3 82 31 0
c17 0 39 -9 51 -21z m83 -24 c12 -33 5 -49 -8 -19 -22 51 -31 46 -31 -17 0
-32 3 -59 6 -59 4 0 14 10 22 23 9 12 16 17 16 10 1 -12 -45 -53 -60 -53 -4 0
-3 14 3 31 10 30 7 75 -8 113 -7 17 -5 17 23 2 17 -8 33 -23 37 -31z"/>
<path d="M2179 1548 c3 -47 4 -50 17 -33 17 22 18 40 4 66 -18 33 -25 21 -21
-33z"/>
</g>
</svg>
